<svg width="24" height="24" viewBox="0 0 24 24" fill="none" xmlns="http://www.w3.org/2000/svg">
<g clip-path="url(#clip0_2035_468)">
<path d="M23.6786 11.4086C22.8943 9.567 21.6638 7.94961 20.0981 6.70241C18.5325 5.4552 16.6809 4.61741 14.7106 4.26464C14.9244 3.80835 15.0197 3.30546 14.9874 2.80258C14.9552 2.29969 14.7966 1.81307 14.5263 1.3878C14.2559 0.962534 13.8826 0.612382 13.4409 0.369786C12.9993 0.12719 12.5035 0 11.9996 0C11.4957 0 10.9999 0.12719 10.5582 0.369786C10.1165 0.612382 9.74322 0.962534 9.47289 1.3878C9.20255 1.81307 9.04392 2.29969 9.0117 2.80258C8.97948 3.30546 9.07471 3.80835 9.28857 4.26464C7.31879 4.61795 5.46791 5.45598 3.90283 6.70316C2.33776 7.95033 1.1077 9.56743 0.323575 11.4086C0.0627989 12.0235 -0.0414525 12.6935 0.020151 13.3586C0.0817544 14.0237 0.307291 14.6631 0.676575 15.2196C1.03303 15.7541 1.51332 16.1946 2.07657 16.5036L2.67657 19.8756C2.88079 21.0325 3.48637 22.0803 4.3868 22.8348C5.28723 23.5892 6.42484 24.0021 7.59958 24.0006H16.3996C17.5742 24.0022 18.7118 23.5894 19.6121 22.8349C20.5124 22.0804 21.1178 21.0325 21.3216 19.8756L21.9216 16.5046C22.4852 16.1961 22.9655 15.7555 23.3216 15.2206C23.6914 14.6642 23.9176 14.0248 23.9799 13.3596C24.0422 12.6944 23.9387 12.0241 23.6786 11.4086ZM11.9996 2.00064C12.2648 2.00064 12.5191 2.10599 12.7067 2.29353C12.8942 2.48107 12.9996 2.73542 12.9996 3.00064C12.9996 3.26585 12.8942 3.52021 12.7067 3.70774C12.5191 3.89528 12.2648 4.00064 11.9996 4.00064C11.7344 4.00064 11.48 3.89528 11.2925 3.70774C11.1049 3.52021 10.9996 3.26585 10.9996 3.00064C10.9996 2.73542 11.1049 2.48107 11.2925 2.29353C11.48 2.10599 11.7344 2.00064 11.9996 2.00064ZM19.3566 19.5256C19.2332 20.2199 18.8691 20.8485 18.3284 21.3012C17.7876 21.7538 17.1047 22.0014 16.3996 22.0006H7.59958C6.89492 22.0007 6.21274 21.7527 5.67261 21.3002C5.13248 20.8476 4.76889 20.2194 4.64558 19.5256L4.27458 17.4456C4.82963 17.8343 5.49993 18.0237 6.17632 17.9828C6.85271 17.942 7.49534 17.6733 7.99958 17.2206C8.54859 17.7147 9.26101 17.988 9.99957 17.988C10.7381 17.988 11.4506 17.7147 11.9996 17.2206C12.5486 17.7147 13.261 17.988 13.9996 17.988C14.7381 17.988 15.4506 17.7147 15.9996 17.2206C16.504 17.6741 17.1472 17.9431 17.8243 17.984C18.5013 18.0249 19.1723 17.8351 19.7276 17.4456L19.3566 19.5256ZM21.6566 14.1126C21.4772 14.3879 21.2313 14.6136 20.9418 14.7688C20.6522 14.924 20.3281 15.0037 19.9996 15.0006C19.7632 15.011 19.5319 15.0721 19.3214 15.18C19.1108 15.2879 18.926 15.4399 18.7796 15.6256C18.6848 15.7408 18.5657 15.8336 18.4309 15.8973C18.296 15.961 18.1487 15.994 17.9996 15.994C17.8504 15.994 17.7031 15.961 17.5683 15.8973C17.4334 15.8336 17.3143 15.7408 17.2196 15.6256C17.077 15.437 16.8927 15.2839 16.681 15.1785C16.4693 15.0731 16.236 15.0183 15.9996 15.0183C15.7631 15.0183 15.5299 15.0731 15.3182 15.1785C15.1065 15.2839 14.9221 15.437 14.7796 15.6256C14.6848 15.7408 14.5657 15.8336 14.4309 15.8973C14.296 15.961 14.1487 15.994 13.9996 15.994C13.8504 15.994 13.7031 15.961 13.5683 15.8973C13.4334 15.8336 13.3143 15.7408 13.2196 15.6256C13.077 15.437 12.8927 15.2839 12.681 15.1785C12.4693 15.0731 12.236 15.0183 11.9996 15.0183C11.7631 15.0183 11.5299 15.0731 11.3182 15.1785C11.1065 15.2839 10.9221 15.437 10.7796 15.6256C10.6848 15.7408 10.5657 15.8336 10.4309 15.8973C10.296 15.961 10.1487 15.994 9.99957 15.994C9.85043 15.994 9.70313 15.961 9.56827 15.8973C9.43341 15.8336 9.31433 15.7408 9.21957 15.6256C9.07703 15.437 8.89267 15.2839 8.68098 15.1785C8.46929 15.0731 8.23605 15.0183 7.99958 15.0183C7.7631 15.0183 7.52986 15.0731 7.31817 15.1785C7.10648 15.2839 6.92212 15.437 6.77958 15.6256C6.68483 15.7408 6.56574 15.8336 6.43088 15.8973C6.29602 15.961 6.14872 15.994 5.99958 15.994C5.85043 15.994 5.70313 15.961 5.56827 15.8973C5.43341 15.8336 5.31432 15.7408 5.21957 15.6256C5.07321 15.4398 4.88843 15.2877 4.67787 15.1798C4.46731 15.072 4.23594 15.0108 3.99957 15.0006C3.67118 15.0036 3.34732 14.9238 3.05789 14.7686C2.76847 14.6134 2.5228 14.3878 2.34358 14.1126C2.15465 13.8319 2.03941 13.5082 2.00848 13.1713C1.97755 12.8343 2.03192 12.495 2.16657 12.1846C5.43357 3.98464 18.5666 3.98464 21.8346 12.1846C21.9692 12.495 22.0236 12.8343 21.9927 13.1713C21.9617 13.5082 21.8465 13.8319 21.6576 14.1126H21.6566Z" fill="#FFFDFA"/>
</g>
<defs>
<clipPath id="clip0_2035_468">
<rect width="24" height="24" fill="white"/>
</clipPath>
</defs>
</svg>
